<svg width="155" height="48" viewBox="0 0 155 48" fill="none" xmlns="http://www.w3.org/2000/svg">
<g clip-path="url(#clip0_9_89)">
<path d="M10.1164 16.5588C10.1433 16.7705 10.1444 17.2865 10.1197 18.1068C10.132 18.8794 10.1677 19.4985 10.2269 19.9641C10.27 20.3027 10.3392 20.509 10.4346 20.5829L12.0497 18.571C12.63 17.723 13.1472 17.0551 13.6013 16.5672C14.5726 15.4114 15.6296 14.7609 16.7724 14.6155C17.7036 14.4971 18.4477 14.7681 19.0048 15.4284C19.3126 15.8193 19.5015 16.2899 19.5714 16.8402C19.6253 17.2634 19.581 17.5916 19.4386 17.8248C18.9275 18.879 17.9705 20.4846 16.5674 22.6415C16.0186 23.3995 15.7846 24.0959 15.8654 24.7308C15.9407 25.3234 16.3205 25.9417 17.0045 26.5859C17.5878 27.1139 18.4204 27.9112 19.5023 28.9779C21.6184 31.0743 23.4663 32.7533 25.0461 34.0147C26.6628 35.2284 28.4615 36.1824 30.4423 36.8767C30.6647 36.9345 30.8609 37.1246 31.031 37.447C31.1956 37.7271 31.2675 37.9545 31.2468 38.1292C31.2313 38.3462 31.089 38.5794 30.8196 38.8287C30.5502 39.078 30.307 39.195 30.09 39.1796C29.4336 39.091 28.8911 39.0525 28.4624 39.064C26.2077 38.9207 24.5743 38.5908 23.5624 38.0743C21.9041 37.21 19.5113 35.6433 16.3841 33.3744C14.4919 32.0237 13.5219 31.3299 13.4742 31.2929L12.1941 30.359C11.1922 29.5832 10.6913 29.1953 10.6913 29.1953C10.6336 29.4177 10.6316 29.7405 10.6854 30.1638C10.7339 30.5447 10.8089 30.9653 10.9104 31.4255C11.0489 31.838 11.1078 32.1315 11.087 32.3062C11.4359 37.079 11.7081 40.5713 11.9033 42.783C11.9963 44.1905 11.7923 45.2917 11.2912 46.0866C10.8325 46.8761 10.0845 47.2508 9.04714 47.2107C8.70316 47.2114 8.30069 47.0906 7.83975 46.8481C7.42114 46.6003 7.15066 46.3336 7.02833 46.0481C6.32589 44.245 5.86162 42.4546 5.63552 40.6769C4.98416 35.5555 4.39897 30.4472 3.87997 25.352L1.88247 4.57394C1.63949 2.32529 2.66079 1.05562 4.94638 0.764926C6.51243 0.565748 7.69291 0.716682 8.48781 1.21773C9.28271 1.71877 9.71858 2.60957 9.79543 3.8901L9.98417 10.4467C10.0033 11.9496 10.0474 13.987 10.1164 16.5588Z" fill="black"/>
<path d="M102.1 43.9C97.42 43.9 93.94 42.52 91.66 39.76C89.42 36.96 88.3 33.08 88.3 28.12C88.3 22.92 89.48 19.02 91.84 16.42C94.24 13.82 97.62 12.52 101.98 12.52C105.22 12.52 107.86 13.18 109.9 14.5C111.94 15.78 113.44 17.6 114.4 19.96C115.36 22.28 115.84 25 115.84 28.12C115.84 33.04 114.64 36.9 112.24 39.7C109.88 42.5 106.5 43.9 102.1 43.9ZM102.04 39.94C104.48 39.94 106.38 39.42 107.74 38.38C109.1 37.3 110.06 35.88 110.62 34.12C111.22 32.32 111.52 30.32 111.52 28.12C111.52 25.76 111.22 23.72 110.62 22C110.02 20.24 109.02 18.88 107.62 17.92C106.26 16.96 104.4 16.48 102.04 16.48C99.64 16.48 97.76 17 96.4 18.04C95.04 19.08 94.06 20.48 93.46 22.24C92.9 23.96 92.62 25.92 92.62 28.12C92.62 31.64 93.32 34.5 94.72 36.7C96.12 38.86 98.56 39.94 102.04 39.94Z" fill="black"/>
<path d="M27.7412 8.71131L28.1164 11.4356L27.7412 8.71131ZM44.0279 25.1492L46.4706 23.8859L46.4697 23.8843L44.0279 25.1492ZM69.3657 15.4361L69.3657 18.1861L69.3657 15.4361ZM91.2133 40.9304C92.5556 41.641 94.2198 41.129 94.9304 39.7867C95.641 38.4444 95.129 36.7802 93.7867 36.0696L92.5 38.5L91.2133 40.9304ZM14.8385 19.8261L16.9106 21.6341C17.8647 20.5405 18.8078 19.3043 19.6896 18.174C20.5987 17.0088 21.4758 15.9117 22.4001 14.9292C24.2616 12.9503 26.0565 11.7193 28.1164 11.4356L27.7412 8.71131L27.3659 5.98703C23.4835 6.52182 20.6079 8.80725 18.394 11.1607C17.2806 12.3442 16.2689 13.6172 15.3532 14.7909C14.4104 15.9993 13.593 17.0706 12.7664 18.0181L14.8385 19.8261ZM27.7412 8.71131L28.1164 11.4356C30.2592 11.1404 32.6567 12.5711 35.3142 15.9293C37.8581 19.1438 39.9475 23.2511 41.5861 26.4142L44.0279 25.1492L46.4697 23.8843C44.8989 20.8519 42.5645 16.2279 39.6271 12.5162C36.8035 8.94812 32.6622 5.25749 27.3659 5.98703L27.7412 8.71131ZM44.0279 25.1492L41.5853 26.4125C43.1297 29.3988 45.7047 33.8584 48.4361 37.5428C49.7937 39.3741 51.2684 41.1217 52.7437 42.4028C53.4822 43.0441 54.2994 43.638 55.1742 44.0546C56.0418 44.4679 57.1376 44.7872 58.3382 44.6218L57.963 41.8975L57.5877 39.1733C57.8038 39.1435 57.8197 39.2227 57.5393 39.0892C57.2662 38.959 56.8676 38.6996 56.3498 38.2499C55.3124 37.3491 54.1128 35.9649 52.8544 34.2674C50.3538 30.8943 47.9303 26.7085 46.4706 23.8859L44.0279 25.1492ZM57.963 41.8975L58.3382 44.6218C60.3955 44.3384 61.7943 42.9924 62.6973 41.6854C63.601 40.3774 64.2524 38.7694 64.7585 37.2283C65.273 35.6614 65.6963 33.974 66.0715 32.4335C66.4581 30.8459 66.7857 29.4514 67.134 28.2902L64.5 27.5L61.866 26.7098C61.4643 28.0486 61.092 29.636 60.7277 31.132C60.3519 32.6749 59.973 34.1727 59.533 35.5123C59.0846 36.8779 58.6291 37.8978 58.1723 38.559C57.7148 39.2211 57.4995 39.1854 57.5877 39.1733L57.963 41.8975ZM64.5 27.5L67.134 28.2902C67.5309 26.9672 67.8906 25.522 68.2282 24.1732C68.5735 22.7929 68.8957 21.5134 69.2374 20.3993C69.5898 19.25 69.9037 18.4818 70.1685 18.046C70.5077 17.4877 70.2993 18.1861 69.3657 18.1861L69.3657 15.4361L69.3657 12.6861C67.2493 12.6861 66.0287 14.2675 65.4682 15.1899C64.8333 16.2348 64.3598 17.5451 63.9791 18.7868C63.5875 20.0636 63.2306 21.4876 62.8927 22.8381C62.5469 24.22 62.2191 25.5328 61.866 26.7098L64.5 27.5ZM69.3657 15.4361L69.3657 18.1861C69.316 18.1861 69.6896 18.2076 70.5481 18.9025C71.326 19.5322 72.1789 20.4508 73.0354 21.5142C73.8793 22.562 74.6598 23.6659 75.307 24.6148C75.8853 25.4628 76.5003 26.4075 76.8154 26.8196L79 25.1492L81.1846 23.4789C80.9865 23.2198 80.6004 22.6148 79.8507 21.5157C79.1699 20.5176 78.2956 19.2771 77.3189 18.0644C76.3548 16.8673 75.2214 15.6093 74.0085 14.6275C72.8761 13.7109 71.2542 12.6861 69.3657 12.6861L69.3657 15.4361ZM79 25.1492L76.8154 26.8196C77.5427 27.7708 82.0191 36.0629 91.2133 40.9304L92.5 38.5L93.7867 36.0696C85.9809 31.9371 82.5099 25.2122 81.1846 23.4789L79 25.1492Z" fill="black"/>
<path d="M144.191 43.0838C145.348 43.0081 146.343 42.5823 147.174 41.8064C148.002 40.9905 148.718 39.9817 149.321 38.7798C149.921 37.538 150.396 36.2241 150.747 34.8383C151.094 33.4126 151.366 32.0519 151.562 30.7564C151.758 29.4609 151.887 28.3701 151.949 27.4841C151.958 27.0026 151.995 26.3387 152.059 25.4927C152.122 24.6067 152.183 23.7008 152.242 22.775C152.26 21.8118 152.286 20.9883 152.321 20.3045C152.354 19.5809 152.365 19.1392 152.355 18.9795L152.23 17.0636C152.18 16.3052 152.112 15.5681 152.025 14.8523C151.896 14.0991 151.655 13.4935 151.305 13.0354C150.912 12.54 150.296 12.3197 149.458 12.3745C148.899 12.4111 148.508 12.5569 148.284 12.8121C148.017 13.0299 147.891 13.2386 147.904 13.4382C148.029 15.3541 148.045 17.4375 147.952 19.6884C147.859 21.9393 147.684 24.1755 147.429 26.3969C147.17 28.5784 146.862 30.6028 146.503 32.4702C146.102 34.3003 145.677 35.7712 145.228 36.8828C144.946 37.4625 144.605 37.7654 144.205 37.7915C143.846 37.815 143.429 37.5617 142.953 37.0316C142.953 37.0316 142.836 36.7787 142.603 36.2729C142.327 35.7297 142.028 35.148 141.707 34.5276C141.383 33.8673 141.171 33.3802 141.07 33.0661C140.975 32.8318 140.757 32.2648 140.418 31.365C140.039 30.4679 139.631 29.4523 139.196 28.3182C138.762 27.1842 138.354 26.1686 137.975 25.2715C137.596 24.3743 137.358 23.8086 137.263 23.5743C136.743 22.3657 135.991 21.2925 135.008 20.3546C134.022 19.3769 132.97 18.9246 131.852 18.9977C130.615 19.0786 129.574 20.0086 128.728 21.7876C127.84 23.5292 126.827 26.1209 125.689 29.5625C125.486 30.1369 125.196 30.9175 124.82 31.9042C124.441 32.8509 124.038 33.7391 123.611 34.5688C123.142 35.3611 122.693 35.8514 122.264 36.0398C122.052 35.8533 121.757 35.3314 121.38 34.4742C120.964 33.6195 120.518 32.6265 120.043 31.4951C119.526 30.3264 119.027 29.1364 118.547 27.9251C118.067 26.7139 117.636 25.6397 117.254 24.7026C116.872 23.7656 116.609 23.1213 116.466 22.7699L115.407 20.3739C115.171 19.8282 114.826 19.1492 114.372 18.3371C113.876 17.4877 113.326 16.742 112.723 16.1C112.119 15.458 111.479 15.1592 110.8 15.2036C110.361 15.2323 110.012 15.4155 109.754 15.7531C109.455 16.0933 109.32 16.4829 109.349 16.922L109.384 17.4608C109.4 17.7003 109.434 17.9185 109.487 18.1155C109.498 18.2751 109.569 18.4508 109.702 18.6426C110.225 19.8911 110.849 21.4737 111.576 23.3904C112.303 25.3071 113.096 27.3196 113.955 29.428C114.812 31.4965 115.721 33.4413 116.682 35.2625C117.643 37.0837 118.661 38.5603 119.737 39.6925C120.771 40.7874 121.827 41.2996 122.904 41.2291C123.782 41.1717 124.721 40.509 125.721 39.241C126.677 37.9358 127.667 36.2076 128.689 34.0563C128.862 33.6441 129.192 32.8609 129.677 31.7067C130.163 30.5526 130.662 29.2973 131.175 27.941C131.647 26.5872 131.992 25.4223 132.209 24.446L137.717 36.9532C138.139 37.8877 138.703 38.8529 139.409 39.8489C140.073 40.8076 140.827 41.6002 141.669 42.2265C142.472 42.8554 143.313 43.1412 144.191 43.0838Z" fill="black"/>
</g>
<defs>
<clipPath id="clip0_9_89">
<rect width="155" height="48" fill="white"/>
</clipPath>
</defs>
</svg>
